<?xml version='1.0' encoding='utf-8'?>
<svg xmlns="http://www.w3.org/2000/svg" id="a7592070-ea42-4332-88ba-3a2476e3e338" data-name="ebb10820-566f-4558-8629-6eb22576106c" viewBox="0 0 595.24 568.27"><defs><style>.ebda879b-9962-4620-b57d-e7106a8c9019{fill:#9192b8;}.b487ec8e-094b-4161-8c30-f5116f7bc642{fill:#8fb1d2;}.a072d4db-024c-45cd-8170-128d6e5f4c9c{fill:#f9f9fc;}.b924e994-87cb-4d2e-a09a-7facaa7316c3{fill:#df9600;}.e85621e9-b9bb-45df-856a-e60757a8fc54{fill:#e4a422;}.bb82911a-0191-480d-978e-ff567c3f4cd4{fill:#0a0909;}</style></defs><title>bird03</title><path class="ebda879b-9962-4620-b57d-e7106a8c9019" d="M595.54,674.9H.3V106.65H591.54c4.5,0,3.92-.38,3.92,2.67Q595.54,392.12,595.54,674.9Z" transform="translate(-0.3 -106.63)"/><path class="b487ec8e-094b-4161-8c30-f5116f7bc642" d="M129.13,411.85c-.28-1.17-1.28-1.26-2.21-1.51-6-1.56-11.89-3.15-17.84-4.71-13.61-3.56-27.23-7.08-40.82-10.69-6.72-1.78-13.44-3.57-20-5.81A61.38,61.38,0,0,1,39.08,385a11.19,11.19,0,0,1-2.91-2.1c-.87-.94-1.91-1.91-1.2-3.35s1.67-2.8,3.57-2.74c5.43.16,10.86-.38,16.29.37,2.75.38,5.57.32,8.35.46,3.34.17,6.68.51,10,.66,4.85.22,9.67.95,14.52,1.26,2.47.15,4.92.4,7.39.6,2.85.24,5.7.55,8.56.82l6.9.61c4.21.35,8.43.63,12.63,1.09a21.92,21.92,0,0,0,4.28.31c.9-.07,1.14-.55.55-1.27-3.32-4-4.45-8.77-5.38-13.66a38.23,38.23,0,0,1,.31-16.39,19.78,19.78,0,0,1,3.6-7.76,11.84,11.84,0,0,1,8.16-4.5,19.93,19.93,0,0,1,9.82,1.62c5.59,2.22,10.69,5.42,16.11,8A225.92,225.92,0,0,0,182,358.24a58.52,58.52,0,0,0,24.3,3.18c5.62-.45,10.91-2.38,16-4.64,6.45-2.84,12.36-6.67,18.51-10.07a123.56,123.56,0,0,1,24.29-10.13q12.18-3.66,24.09-8.11c7.72-2.87,15.45-5.7,23-8.86a5.07,5.07,0,0,1,2.11-.35c.76.25,1.5.56,2.28.74,9.19,2.09,18.32,4.48,27.44,6.87a99.3,99.3,0,0,1,45.27,24.41,69.88,69.88,0,0,1,12.23,15.07c1.63,2.73,3.27,5.5,3.77,8.76.48,3.05.57,3,3.7,3.55,11.66,2,16.29,10.85,16.23,20.73a46.86,46.86,0,0,1-.85,6.88,85,85,0,0,1-9.31,28.08,13,13,0,0,1-2.7,3.64,66.13,66.13,0,0,1-13,8.94c-10.06,5.28-20.82,8.58-31.86,11Q358,460,348.4,461.17a98.63,98.63,0,0,1-14.56,1.12c-5.67-.16-11.33-.1-17-.41s-11.47-.74-17.19-1.2c-6.12-.48-12.19-1.47-18.29-2.2-8.73-1-17.37-2.58-26-4.19-14.7-2.75-29.21-6.31-43.59-10.4q-20-5.68-39.34-13.12a408.35,408.35,0,0,1-40.3-17.92A6.3,6.3,0,0,0,129.13,411.85Z" transform="translate(-0.3 -106.63)"/><path class="a072d4db-024c-45cd-8170-128d6e5f4c9c" d="M129.13,411.85a6.37,6.37,0,0,1,2.92,1,408.35,408.35,0,0,0,40.3,17.92q19.36,7.46,39.34,13.12c14.38,4.09,28.89,7.65,43.59,10.4,8.64,1.61,17.28,3.15,26,4.19,6.1.73,12.17,1.72,18.29,2.2,5.72.46,11.45.9,17.19,1.2s11.34.25,17,.41a98.63,98.63,0,0,0,14.56-1.12q9.63-1.17,19.12-3.24c11-2.43,21.8-5.73,31.86-11a66.13,66.13,0,0,0,13-8.94,13,13,0,0,0,2.7-3.64,85,85,0,0,0,9.31-28.08,46.86,46.86,0,0,0,.85-6.88c.06-9.88-4.57-18.7-16.23-20.73-3.13-.55-3.22-.5-3.7-3.55-.5-3.26-2.14-6-3.77-8.76a70,70,0,0,0-12.12-15.1,99.3,99.3,0,0,0-45.27-24.41c-9.12-2.39-18.25-4.78-27.44-6.87-.78-.18-1.52-.49-2.28-.74a36.13,36.13,0,0,1,1.18-6.84,146.25,146.25,0,0,1,13.3-36.87c4.47-8.37,9.84-16.09,17-22.45A45.47,45.47,0,0,1,372,241.36a57.16,57.16,0,0,1,22.7,2.23,74.69,74.69,0,0,1,17.39,8,123.31,123.31,0,0,1,18.28,13.89,104.7,104.7,0,0,1,8.1,7.81c2.81,3,5.74,6,8.41,9.18,2.48,3,5.78,5,8.93,7.17.59.41,1.28.67,1.63,1.36a44.73,44.73,0,0,0-11-1c-8.22.19-16.45.37-24.67.61a37.59,37.59,0,0,0-4.35.49,5.12,5.12,0,0,0,3.17,1.88c5.31,1.18,10.45,3,15.66,4.46,8.37,2.4,16.64,5.11,25.21,6.75,5.17,1,10.35,2,15.44,3.36a13,13,0,0,1-4.53-.16,12,12,0,0,0-2.39-.16c-3.43,0-6.88.1-10.31-.06a31.79,31.79,0,0,0-15.53,3.38c-5.17,2.52-10.55,4.61-15.37,7.83a39.83,39.83,0,0,0-7.65,6.1,10.5,10.5,0,0,0-2.67,6.5c-.42,5.15,1.48,9.63,4,13.82,6.33,10.41,9.67,21.85,11.71,33.71,1.07,6.16.8,12.44.58,18.66a105.1,105.1,0,0,1-4.64,28.49,79.68,79.68,0,0,1-12.76,24,93.65,93.65,0,0,1-10.78,12.17,162.43,162.43,0,0,1-17.23,14.07A245.86,245.86,0,0,1,364,491.26a124,124,0,0,1-20.46,9.21c-1,.31-2,.58-3,.87l-9.87,1.88a34.27,34.27,0,0,0-5.73-.15,28.77,28.77,0,0,1-12.51-2.74,5.74,5.74,0,0,0-3.93-.38,168.58,168.58,0,0,1-18.79,3.42,104.66,104.66,0,0,1-17.86,1.11c-1.75-.08-3.45-.75-5.22-.38-3.38-1-6.95-1.19-10.32-2.26a7.44,7.44,0,0,0-1.63-.15,185.67,185.67,0,0,1-20.19-8.85c-4.73-2.38-9.08-5.37-13.6-8.08a191.19,191.19,0,0,0-20.1-10.17c-6.78-3-13.67-5.83-20.59-8.55-12.07-4.74-24.36-8.83-36.67-12.85-13.15-4.29-26.44-8.13-39.82-11.64-6.8-1.78-13.62-3.5-20.51-4.93-5-1-10-1.81-15.09-2.68a40.11,40.11,0,0,1-6.45-1.81,4.85,4.85,0,0,1-1.09-.49c-1.23-.81-1.17-1.87.16-2.56a13.88,13.88,0,0,1,5.3-1.31c10.2-.74,19.94-3.58,29.71-6.3,10.47-2.92,20.94-5.87,31.27-9.27A7.3,7.3,0,0,1,129.13,411.85ZM405.8,275.68a8.35,8.35,0,0,0-8-8.46,8.52,8.52,0,0,0-8.82,8.2,2.72,2.72,0,0,0,0,.28c-.1,4.35,4,8.38,8.47,8.38A8.43,8.43,0,0,0,405.8,275.68Z" transform="translate(-0.3 -106.63)"/><path class="b924e994-87cb-4d2e-a09a-7facaa7316c3" d="M254.65,501.69a7.44,7.44,0,0,1,1.63.15c3.37,1.07,6.94,1.26,10.32,2.26,1.38,14.47,2.87,28.94,4.76,43.36l3,23.54c.41,3.2.43,3.22,3.56,3.7a90.48,90.48,0,0,1,21.66,6,6.67,6.67,0,0,1,1.88,1c.84.78.75,1.39-.33,1.72a14.47,14.47,0,0,1-5.48.35c-2.7-.23-5.41-.47-8.1-.86a9.07,9.07,0,0,0-4.67.54c-9.23,3.4-18.47,6.75-27.71,10.14a90.94,90.94,0,0,1-9.85,3,8.32,8.32,0,0,1-2.85.29c-1.33-.15-1.68-.93-.85-2a13.45,13.45,0,0,1,3.06-2.67c5.43-3.69,11.08-7,16.76-10.28,2.08-1.19,4.11-2.49,6.26-3.54a2.87,2.87,0,0,0,1.73-3.49c-.54-3-1-6-1.6-9-4-21-8.52-42-13-62.95C254.78,502.64,254.73,502.17,254.65,501.69Z" transform="translate(-0.3 -106.63)"/><path class="b924e994-87cb-4d2e-a09a-7facaa7316c3" d="M330.64,503.22l9.87-1.88c.27,2.41-.21,4.79-.24,7.18-.11,9.12-.35,18.24.22,27.35.05.8,0,1.6.05,2.4.08,9.28.55,18.54,1,27.8a3.4,3.4,0,0,0,2.09,3.17c4.71,2.38,9.4,4.8,14.22,7C364,579,370,582,375.26,586.24a14.84,14.84,0,0,1,3.28,3.43c.42.64,1.17,1.38.64,2.15s-1.48.25-2.2,0c-1.35-.5-2.68-1-4-1.64-7.57-3.44-15.16-6.84-22.68-10.39a11.3,11.3,0,0,0-6.75-1,32.22,32.22,0,0,0-9.41,2.75,37,37,0,0,1-7.2,2.63c-.61.16-1.34.39-1.68-.38-.27-.6.24-1,.62-1.44,1.46-1.49,2.94-3,4.39-4.44,1-1,1.87-2,2.8-3a8.83,8.83,0,0,0,2.36-7.64c-.85-7.22-1.15-14.5-1.7-21.75-.56-7.41-1.19-14.82-1.74-22.23Q331.32,513.27,330.64,503.22Z" transform="translate(-0.3 -106.63)"/><path class="e85621e9-b9bb-45df-856a-e60757a8fc54" d="M477,307.53c-5.09-1.38-10.27-2.37-15.44-3.36-8.57-1.64-16.84-4.35-25.21-6.75-5.21-1.5-10.35-3.28-15.66-4.46a5.12,5.12,0,0,1-3.17-1.88c1.45-.17,2.89-.45,4.35-.49,8.22-.24,16.45-.42,24.67-.61a44.77,44.77,0,0,1,11,1c7.33,1.26,14.39,3.58,21.48,5.73,5.2,1.58,10,4.23,15.06,6.15a6.12,6.12,0,0,1,3.16,2.46c1,1.64.68,2.85-1,3.75a5,5,0,0,1-2.56.43,98.08,98.08,0,0,1-14-1.51Z" transform="translate(-0.3 -106.63)"/><path class="bb82911a-0191-480d-978e-ff567c3f4cd4" d="M405.8,275.68a8.44,8.44,0,0,1-8.38,8.4c-4.49,0-8.57-4-8.47-8.38a8.53,8.53,0,0,1,8.55-8.49h.28A8.35,8.35,0,0,1,405.8,275.68Z" transform="translate(-0.3 -106.63)"/></svg>